General
Complete name                            : Scrat.No.Time.For.Nuts.(2006).BluRay.1080p.x264.Eng.DTS.AMX.mkv
Format                                   : Matroska
Format version                           : Version 2
File size                                : 232 MiB
Duration                                 : 7mn 7s
Overall bit rate                         : 4 550 Kbps

Video
ID                                       : 1
Format                                   : AVC
Format/Info                              : Advanced Video Codec
Format profile                           : High@L5.1
Format settings, CABAC                   : Yes
Format settings, ReFrames                : 16 frames
Codec ID                                 : V_MPEG4/ISO/AVC
Duration                                 : 7mn 7s
Bit rate                                 : 3 705 Kbps
Width                                    : 1 920 pixels
Height                                   : 1 056 pixels
Display aspect ratio                     : 16:9
Frame rate                               : 23.976 fps
Color space                              : YUV
Chroma subsampling                       : 4:2:0
Bit depth                                : 8 bits
Scan type                                : Progressive
Bits/(Pixel*Frame)                       : 0.076
Stream size                              : 189 MiB (81%)
Writing library                          : x264 core 125 r2208 d9d2288
Default                                  : Yes
Forced                                   : No

Audio
ID                                       : 2
Format                                   : DTS
Format/Info                              : Digital Theater Systems
Codec ID                                 : A_DTS
Duration                                 : 7mn 7s
Bit rate mode                            : Constant
Bit rate                                 : 755 Kbps
Channel(s)                               : 6 channels
Channel positions                        : Front: L C R, Side: L R, LFE
Sampling rate                            : 48.0 KHz
Bit depth                                : 24 bits
Compression mode                         : Lossy
Stream size                              : 38.5 MiB (17%)
Language                                 : English
Default                                  : Yes
Forced                                   : No
